<?xml version="1.0" encoding="UTF-8" standalone="no"?>
<!DOCTYPE svg PUBLIC "-//W3C//DTD SVG 1.0//EN" "http://www.w3.org/TR/2001/PR-SVG-20010719/DTD/svg10.dtd">
<svg width="34cm" height="31cm" viewBox="246 5 671 605" xmlns="http://www.w3.org/2000/svg" xmlns:xlink="http://www.w3.org/1999/xlink">
  <g>
    <rect style="fill: #1e90ff" x="412.456" y="6.29646" width="129" height="57"/>
    <rect style="fill: none; fill-opacity:0; stroke-width: 2; stroke: #000000" x="412.456" y="6.29646" width="129" height="57"/>
    <text font-size="12.8" style="fill: #000000;text-anchor:middle;font-family:sans-serif;font-style:normal;font-weight:700" x="476.956" y="38.6965">
      <tspan x="476.956" y="38.6965">Parser</tspan>
    </text>
  </g>
  <g>
    <rect style="fill: #add8e6" x="411.268" y="102.783" width="126" height="59"/>
    <rect style="fill: none; fill-opacity:0; stroke-width: 2; stroke: #000000" x="411.268" y="102.783" width="126" height="59"/>
    <text font-size="12.8" style="fill: #000000;text-anchor:middle;font-family:sans-serif;font-style:normal;font-weight:700" x="474.268" y="136.183">
      <tspan x="474.268" y="136.183">AST</tspan>
    </text>
  </g>
  <text font-size="12.8" style="fill: #000000;text-anchor:start;font-family:sans-serif;font-style:normal;font-weight:normal" x="474.268" y="132.283">
    <tspan x="474.268" y="132.283"></tspan>
  </text>
  <g>
    <rect style="fill: #b64949" x="686.62" y="307.244" width="154" height="74"/>
    <rect style="fill: none; fill-opacity:0; stroke-width: 2; stroke: #000000" x="686.62" y="307.244" width="154" height="74"/>
    <text font-size="12.8" style="fill: #ffffff;text-anchor:middle;font-family:sans-serif;font-style:normal;font-weight:700" x="763.62" y="348.144">
      <tspan x="763.62" y="348.144">TurboFan</tspan>
    </text>
  </g>
  <g>
    <path style="fill: #d9a6af" d="M 682.078 448.54 L 854.078,448.54 L 854.078,511.111 C 819.678,500.683 802.478,500.683 768.078,511.111 C 733.678,521.54 716.478,521.54 682.078,511.111 L 682.078,448.54z"/>
    <path style="fill: none; fill-opacity:0; stroke-width: 2; stroke: #000000" d="M 682.078 448.54 L 854.078,448.54 L 854.078,511.111 C 819.678,500.683 802.478,500.683 768.078,511.111 C 733.678,521.54 716.478,521.54 682.078,511.111 L 682.078,448.54"/>
    <text font-size="12.8" style="fill: #000000;text-anchor:middle;font-family:sans-serif;font-style:normal;font-weight:700" x="768.078" y="478.611">
      <tspan x="768.078" y="478.611">Machine Code</tspan>
    </text>
  </g>
  <g>
    <line style="fill: none; fill-opacity:0; stroke-width: 2; stroke: #000000" x1="476.145" y1="64.2137" x2="475.377" y2="92.0621"/>
    <polygon style="fill: #000000" points="475.17,99.5593 470.448,89.4253 475.377,92.0621 480.444,89.7009 "/>
    <polygon style="fill: none; fill-opacity:0; stroke-width: 2; stroke: #000000" points="475.17,99.5593 470.448,89.4253 475.377,92.0621 480.444,89.7009 "/>
  </g>
  <g>
    <path style="fill: #ffc964" d="M 247.564 431.126 L 435.459,431.126 L 435.459,495.343 C 397.88,484.64 379.09,484.64 341.511,495.343 C 303.932,506.046 285.143,506.046 247.564,495.343 L 247.564,431.126z"/>
    <path style="fill: none; fill-opacity:0; stroke-width: 2; stroke: #000000" d="M 247.564 431.126 L 435.459,431.126 L 435.459,495.343 C 397.88,484.64 379.09,484.64 341.511,495.343 C 303.932,506.046 285.143,506.046 247.564,495.343 L 247.564,431.126"/>
    <text font-size="12.8" style="fill: #000000;text-anchor:middle;font-family:sans-serif;font-style:normal;font-weight:700" x="341.511" y="461.883">
      <tspan x="341.511" y="461.883">Unoptimized Code</tspan>
    </text>
  </g>
  <g>
    <rect style="fill: #fc913a" x="257.078" y="262.772" width="168.867" height="77.974"/>
    <rect style="fill: none; fill-opacity:0; stroke-width: 2; stroke: #000000" x="257.078" y="262.772" width="168.867" height="77.974"/>
    <text font-size="12.8" style="fill: #000000;text-anchor:middle;font-family:sans-serif;font-style:normal;font-weight:700" x="341.512" y="305.659">
      <tspan x="341.512" y="305.659">Full Codegen</tspan>
    </text>
  </g>
  <g>
    <line style="fill: none; fill-opacity:0; stroke-width: 2; stroke: #000000" x1="450.373" y1="162.787" x2="378.833" y2="254.115"/>
    <polygon style="fill: #000000" points="374.208,260.019 376.438,249.064 378.833,254.115 384.311,255.23 "/>
    <polygon style="fill: none; fill-opacity:0; stroke-width: 2; stroke: #000000" points="374.208,260.019 376.438,249.064 378.833,254.115 384.311,255.23 "/>
  </g>
  <g>
    <line style="fill: none; fill-opacity:0; stroke-width: 2; stroke: #000000" x1="341.512" y1="341.714" x2="341.511" y2="420.391"/>
    <polygon style="fill: #000000" points="341.511,427.891 336.511,417.891 341.511,420.391 346.511,417.891 "/>
    <polygon style="fill: none; fill-opacity:0; stroke-width: 2; stroke: #000000" points="341.511,427.891 336.511,417.891 341.511,420.391 346.511,417.891 "/>
  </g>
  <g>
    <rect style="fill: #b64949" x="683.456" y="190.718" width="154" height="74"/>
    <rect style="fill: none; fill-opacity:0; stroke-width: 2; stroke: #000000" x="683.456" y="190.718" width="154" height="74"/>
    <text font-size="12.8" style="fill: #ffffff;text-anchor:middle;font-family:sans-serif;font-style:normal;font-weight:700" x="760.456" y="231.618">
      <tspan x="760.456" y="231.618">CrankShaft</tspan>
    </text>
  </g>
  <g>
    <polyline style="fill: none; fill-opacity:0; stroke-width: 2; stroke: #000000" points="838.452,227.718 915.898,227.718 915.898,485.04 864.806,485.04 "/>
    <polygon style="fill: #000000" points="857.306,485.04 867.306,480.04 864.806,485.04 867.306,490.04 "/>
    <polygon style="fill: none; fill-opacity:0; stroke-width: 2; stroke: #000000" points="857.306,485.04 867.306,480.04 864.806,485.04 867.306,490.04 "/>
  </g>
  <g>
    <line style="fill: none; fill-opacity:0; stroke-width: 2; stroke: #000000" x1="764.823" y1="382.227" x2="766.583" y2="437.824"/>
    <polygon style="fill: #000000" points="766.82,445.32 761.506,435.483 766.583,437.824 771.501,435.167 "/>
    <polygon style="fill: none; fill-opacity:0; stroke-width: 2; stroke: #000000" points="766.82,445.32 761.506,435.483 766.583,437.824 771.501,435.167 "/>
  </g>
  <g>
    <line style="fill: none; fill-opacity:0; stroke-width: 2; stroke: #000000" x1="538.129" y1="153.579" x2="673.227" y2="198.63"/>
    <polygon style="fill: #000000" points="680.342,201.002 669.274,202.582 673.227,198.63 672.438,193.095 "/>
    <polygon style="fill: none; fill-opacity:0; stroke-width: 2; stroke: #000000" points="680.342,201.002 669.274,202.582 673.227,198.63 672.438,193.095 "/>
  </g>
  <g>
    <path style="fill: none; fill-opacity:0; stroke-width: 4; stroke-dasharray: 32; stroke: #ff0000" d="M 681.078 482.522 C 585.11,479.744 389.897,572.381 358.089,504.15"/>
    <polygon style="fill: #ff0000" points="354.92,497.352 363.677,504.303 358.089,504.15 354.614,508.529 "/>
    <polygon style="fill: none; fill-opacity:0; stroke-width: 4; stroke: #ff0000" points="354.92,497.352 363.677,504.303 358.089,504.15 354.614,508.529 "/>
  </g>
  <text font-size="16.8656" style="fill: #ff0000;text-anchor:start;font-family:sans-serif;font-style:normal;font-weight:normal" x="384.322" y="605.94">
    <tspan x="384.322" y="605.94">Deoptimize</tspan>
  </text>
  <text font-size="12.8" style="fill: #000000;text-anchor:start;font-family:sans-serif;font-style:normal;font-weight:normal" x="367.674" y="364.532">
    <tspan x="367.674" y="364.532"></tspan>
  </text>
  <g>
    <path style="fill: none; fill-opacity:0; stroke-width: 4; stroke-dasharray: 32; stroke: #00ff00" d="M 426.895 341.736 C 562.355,405.16 462.599,344.244 673.643,344.244"/>
    <polygon style="fill: #00ff00" points="681.143,344.244 671.143,349.244 673.643,344.244 671.143,339.244 "/>
    <polygon style="fill: none; fill-opacity:0; stroke-width: 4; stroke: #00ff00" points="681.143,344.244 671.143,349.244 673.643,344.244 671.143,339.244 "/>
  </g>
  <g>
    <path style="fill: none; fill-opacity:0; stroke-width: 4; stroke-dasharray: 32; stroke: #00ff00" d="M 426.947 301.76 C 566.037,301.76 543.414,227.718 670.532,227.718"/>
    <polygon style="fill: #00ff00" points="678.032,227.718 668.032,232.718 670.532,227.718 668.032,222.718 "/>
    <polygon style="fill: none; fill-opacity:0; stroke-width: 4; stroke: #00ff00" points="678.032,227.718 668.032,232.718 670.532,227.718 668.032,222.718 "/>
  </g>
  <text font-size="18.2203" style="fill: #00ff00;text-anchor:start;font-family:sans-serif;font-style:normal;font-weight:normal" x="500.864" y="319.342">
    <tspan x="500.864" y="319.342">Optimize</tspan>
  </text>
  <g>
    <line style="fill: none; fill-opacity:0; stroke-width: 2; stroke: #000000" x1="515.894" y1="162.776" x2="703.896" y2="300.494"/>
    <polygon style="fill: #000000" points="709.947,304.926 698.925,303.05 703.896,300.494 704.834,294.983 "/>
    <polygon style="fill: none; fill-opacity:0; stroke-width: 2; stroke: #000000" points="709.947,304.926 698.925,303.05 703.896,300.494 704.834,294.983 "/>
  </g>
</svg>
